<svg preserveAspectRatio="none" width="100%" height="100%" overflow="visible" style="display: block;" viewBox="0 0 16.75 15.75" fill="none" xmlns="http://www.w3.org/2000/svg">
<path id="Social icon" d="M0.875 14.875C0.875 11.875 2.775 10.375 5.375 10.375C7.975 10.375 9.875 11.875 9.875 14.875M12.375 6.875C13.775 6.875 14.875 5.775 14.875 4.375C14.875 2.975 13.775 1.875 12.375 1.875M11.375 10.875C14.075 10.875 15.875 12.275 15.875 14.875M5.375 6.875C7.075 6.875 8.375 5.575 8.375 3.875C8.375 2.175 7.075 0.875 5.375 0.875C3.675 0.875 2.375 2.175 2.375 3.875C2.375 5.575 3.675 6.875 5.375 6.875Z" stroke="var(--stroke-0, #FF6B16)" stroke-width="1.75" stroke-linecap="round" stroke-linejoin="round"/>
</svg>
