<svg preserveAspectRatio="none" width="100%" height="100%" overflow="visible" style="display: block;" viewBox="0 0 10.2501 16.25" fill="none" xmlns="http://www.w3.org/2000/svg">
<path id="Icon" d="M5.12503 0.825L6.32503 3.025L8.82503 3.325L9.42503 5.825L7.52503 7.325V8.925L9.42503 10.425L8.82503 12.925L6.32503 13.225L5.12503 15.425L3.92503 13.225L1.42503 12.925L0.825032 10.425L2.72503 8.925V7.325L0.825032 5.825L1.42503 3.325L3.92503 3.025L5.12503 0.825ZM5.12503 5.825C4.02503 5.825 3.12503 6.725 3.12503 7.825C3.12503 8.925 4.02503 9.825 5.12503 9.825C6.22503 9.825 7.12503 8.925 7.12503 7.825C7.12503 6.725 6.22503 5.825 5.12503 5.825Z" stroke="var(--stroke-0, #F7F8FC)" stroke-width="1.65" stroke-linecap="round" stroke-linejoin="round"/>
</svg>
